<svg width="25" height="27" viewBox="0 0 25 27" fill="none" xmlns="http://www.w3.org/2000/svg">
<path d="M22.9219 15.7777L24.9737 5.5501C25.1218 4.81165 24.6264 4.10845 23.9579 4.10845H6.91007L6.51224 1.90508C6.41311 1.35589 5.98655 0.961487 5.49171 0.961487H1.04167C0.466363 0.961487 0 1.48983 0 2.1416V2.92834C0 3.5801 0.466363 4.10845 1.04167 4.10845H4.07478L7.12374 20.9956C6.39432 21.4708 5.90278 22.3619 5.90278 23.3836C5.90278 24.9043 6.99097 26.1372 8.33333 26.1372C9.6757 26.1372 10.7639 24.9043 10.7639 23.3836C10.7639 22.6129 10.4841 21.9166 10.0337 21.4167H19.1329C18.6826 21.9166 18.4028 22.6129 18.4028 23.3836C18.4028 24.9043 19.491 26.1372 20.8333 26.1372C22.1757 26.1372 23.2639 24.9043 23.2639 23.3836C23.2639 22.2934 22.7045 21.3512 21.8933 20.9051L22.1327 19.7114C22.2809 18.973 21.7854 18.2698 21.117 18.2698H9.46689L9.18281 16.6963H21.9061C22.3925 16.6963 22.8141 16.315 22.9219 15.7777Z" fill="#535353"/>
</svg>
